HIERARCHY
ROOT hip
{
  OFFSET 0 0 0
  CHANNELS 6 Xposition Yposition Zposition Zrotation Yrotation Xrotation
  JOINT abdomen
  {
    OFFSET 0 20.6881 -0.73152
    CHANNELS 3 Zrotation Xrotation Yrotation
    JOINT chest
    {
      OFFSET 0 11.7043 -0.48768
      CHANNELS 3 Zrotation Xrotation Yrotation
      JOINT neck
      {
        OFFSET 0 22.1894 -2.19456
        CHANNELS 3 Zrotation Xrotation Yrotation
        JOINT head
        {
          OFFSET -0.24384 7.07133 1.2192
          CHANNELS 3 Zrotation Xrotation Yrotation
          JOINT leftEye
          {
            OFFSET 4.14528 8.04674 8.04672
            CHANNELS 3 Zrotation Xrotation Yrotation
            End Site
            {
              OFFSET 1 0 0
            }
          }
          JOINT rightEye
          {
            OFFSET -3.6576 8.04674 8.04672
            CHANNELS 3 Zrotation Xrotation Yrotation
            End Site
            {
              OFFSET 1 0 0
            }
          }
        }
      }
      JOINT rCollar
      {
        OFFSET -2.68224 19.2634 -4.8768
        CHANNELS 3 Zrotation Xrotation Yrotation
        JOINT rShldr
        {
          OFFSET -8.77824 -1.95073 1.46304
          CHANNELS 3 Zrotation Xrotation Yrotation
          JOINT rForeArm
          {
            OFFSET -28.1742 -1.7115 0.48768
            CHANNELS 3 Zrotation Xrotation Yrotation
            JOINT rHand
            {
              OFFSET -22.5879 0.773209 7.07136
              CHANNELS 3 Zrotation Xrotation Yrotation
              JOINT rThumb1
              {
                OFFSET -1.2192 -0.487915 3.41376
                CHANNELS 3 Zrotation Xrotation Yrotation
                JOINT rThumb2
                {
                  OFFSET -3.37035 -0.52449 3.41376
                  CHANNELS 3 Zrotation Xrotation Yrotation
                  End Site
                  {
                    OFFSET -1.78271 -1.18214 1.43049
                  }
                }
              }
              JOINT rIndex1
              {
                OFFSET -7.75947 0.938293 5.60832
                CHANNELS 3 Zrotation Xrotation Yrotation
                JOINT rIndex2
                {
                  OFFSET -2.54057 -0.884171 1.56538
                  CHANNELS 3 Zrotation Xrotation Yrotation
                  End Site
                  {
                    OFFSET -1.62519 -0.234802 1.16502
                  }
                }
              }
              JOINT rMid1
              {
                OFFSET -8.24714 1.18213 3.41376
                CHANNELS 3 Zrotation Xrotation Yrotation
                JOINT rMid2
                {
                  OFFSET -3.10165 -0.590103 1.0647
                  CHANNELS 3 Zrotation Xrotation Yrotation
                  End Site
                  {
                    OFFSET -2.48547 -0.328903 0.83742
                  }
                }
              }
              JOINT rRing1
              {
                OFFSET -8.82822 0.546677 1.51678
                CHANNELS 3 Zrotation Xrotation Yrotation
                JOINT rRing2
                {
                  OFFSET -2.60934 -0.819778 -0.0198488
                  CHANNELS 3 Zrotation Xrotation Yrotation
                  End Site
                  {
                    OFFSET -2.33842 -0.294052 0.168128
                  }
                }
              }
              JOINT rPinky1
              {
                OFFSET -8.27202 -0.0477905 -0.4584
                CHANNELS 3 Zrotation Xrotation Yrotation
                JOINT rPinky2
                {
                  OFFSET -1.82734 -0.647385 -0.700984
                  CHANNELS 3 Zrotation Xrotation Yrotation
                  End Site
                  {
                    OFFSET -1.69225 -0.51767 -0.607171
                  }
                }
              }
            }
          }
        }
      }
      JOINT lCollar
      {
        OFFSET 2.68224 19.2634 -4.8768
        CHANNELS 3 Zrotation Xrotation Yrotation
        JOINT lShldr
        {
          OFFSET 8.77824 -1.95073 1.46304
          CHANNELS 3 Zrotation Xrotation Yrotation
          JOINT lForeArm
          {
            OFFSET 28.1742 -1.7115 0.48768
            CHANNELS 3 Zrotation Xrotation Yrotation
            JOINT lHand
            {
              OFFSET 22.5879 0.773209 7.07136
              CHANNELS 3 Zrotation Xrotation Yrotation
              JOINT lThumb1
              {
                OFFSET 1.2192 -0.487915 3.41376
                CHANNELS 3 Zrotation Xrotation Yrotation
                JOINT lThumb2
                {
                  OFFSET 3.37035 -0.52449 3.41376
                  CHANNELS 3 Zrotation Xrotation Yrotation
                  End Site
                  {
                    OFFSET 1.78271 -1.18214 1.43049
                  }
                }
              }
              JOINT lIndex1
              {
                OFFSET 7.75947 0.938293 5.60832
                CHANNELS 3 Zrotation Xrotation Yrotation
                JOINT lIndex2
                {
                  OFFSET 2.54057 -0.884171 1.56538
                  CHANNELS 3 Zrotation Xrotation Yrotation
                  End Site
                  {
                    OFFSET 1.62519 -0.234802 1.16502
                  }
                }
              }
              JOINT lMid1
              {
                OFFSET 8.24714 1.18213 3.41376
                CHANNELS 3 Zrotation Xrotation Yrotation
                JOINT lMid2
                {
                  OFFSET 3.10165 -0.590103 1.0647
                  CHANNELS 3 Zrotation Xrotation Yrotation
                  End Site
                  {
                    OFFSET 2.48547 -0.328903 0.83742
                  }
                }
              }
              JOINT lRing1
              {
                OFFSET 8.82822 0.546677 1.51678
                CHANNELS 3 Zrotation Xrotation Yrotation
                JOINT lRing2
                {
                  OFFSET 2.60934 -0.819778 -0.0198488
                  CHANNELS 3 Zrotation Xrotation Yrotation
                  End Site
                  {
                    OFFSET 2.33842 -0.294052 0.168128
                  }
                }
              }
              JOINT lPinky1
              {
                OFFSET 8.27202 -0.0477905 -0.4584
                CHANNELS 3 Zrotation Xrotation Yrotation
                JOINT lPinky2
                {
                  OFFSET 1.82734 -0.647385 -0.700984
                  CHANNELS 3 Zrotation Xrotation Yrotation
                  End Site
                  {
                    OFFSET 1.69225 -0.51767 -0.607171
                  }
                }
              }
            }
          }
        }
      }
    }
  }
  JOINT rButtock
  {
    OFFSET -8.77824 4.35084 1.2192
    CHANNELS 3 Zrotation Xrotation Yrotation
    JOINT rThigh
    {
      OFFSET 0 -1.70687 -2.19456
      CHANNELS 3 Zrotation Xrotation Yrotation
      JOINT rShin
      {
        OFFSET 0 -36.8199 0.73152
        CHANNELS 3 Zrotation Xrotation Yrotation
        JOINT rFoot
        {
          OFFSET 0.73152 -45.1104 -5.12064
          CHANNELS 3 Zrotation Xrotation Yrotation
          End Site
          {
            OFFSET -1.1221 -3.69964 12.103
          }
        }
      }
    }
  }
  JOINT lButtock
  {
    OFFSET 8.77824 4.35084 1.2192
    CHANNELS 3 Zrotation Xrotation Yrotation
    JOINT lThigh
    {
      OFFSET 0 -1.70687 -2.19456
      CHANNELS 3 Zrotation Xrotation Yrotation
      JOINT lShin
      {
        OFFSET 0 -36.8199 0.73152
        CHANNELS 3 Zrotation Xrotation Yrotation
        JOINT lFoot
        {
          OFFSET -0.73152 -45.1104 -5.12064
          CHANNELS 3 Zrotation Xrotation Yrotation
          End Site
          {
            OFFSET 1.1221 -3.69964 12.103
          }
        }
      }
    }
  }
}
MOTION
Frames: 5
Frame Time:	0.06666666
5.88445 84.9173 -150.808 0.0 0.0 0.0 -0.140625 -0.000295018 -0.00400525 -0.0387668 -0.000394554 -0.00671562 -1.22597e-15 -1.59028e-15 -1.86361e-17 -3.70858e-15 3.18055e-15 -6.05672e-17 -0.0 0.0 0.0 -0.0 0.0 0.0 -5.97698e-16 1.94126e-19 1.49089e-16 -1.03676e-14 -6.21202e-17 5.96354e-16 -2.26813e-13 6.75868e-14 -6.36111e-15 -2.58384e-12 -6.61207e-14 -5.08889e-14 -6.10032e-12 2.95509e-15 -1.01778e-13 -1.05384e-11 3.18055e-15 -1.78906e-13 -6.09593e-12 5.1684e-15 -1.08139e-13 7.73091 5.47488 0.417314 -6.1006e-12 3.47873e-15 -1.01778e-13 2.90554 0.965183 0.102902 -6.09004e-12 3.77691e-15 -1.00187e-13 10.2786 0.731801 0.0259123 -6.10289e-12 3.18055e-15 -9.22361e-14 2.22167 -0.733487 -0.20892 -5.9505e-16 3.88251e-19 -1.49089e-16 -1.58731e-14 3.29237e-16 -9.93923e-16 -2.26217e-13 -6.63941e-14 3.18055e-15 -2.58569e-12 7.12395e-14 -4.45278e-14 -6.09977e-12 6.94686e-15 -1.01778e-13 -1.05364e-11 9.54166e-15 -1.72545e-13 -6.10746e-12 1.31198e-14 -9.22361e-14 -7.73091 5.47488 -0.417314 -6.10006e-12 7.65321e-15 -1.01778e-13 -2.90554 0.965183 -0.102902 -6.10722e-12 7.85199e-15 -1.00983e-13 -10.2786 0.731801 -0.0259123 -6.09752e-12 6.75868e-15 -1.04958e-13 -2.22167 -0.733487 0.20892 -2.03217e-16 0.0 -3.88251e-19 0.415449 -2.89234 -0.0363694 -0.00657577 -0.313961 -0.0578452 -0.521681 3.20536 0.125418 2.03217e-16 0.0 3.88251e-19 -0.629356 -3.43714 0.0497312 0.00497791 0.672913 0.0432307 0.523147 2.76331 -0.116511
15.5187 83.1872 -154.779 11.0936 8.3743 7.5542 24.6271 4.17073 -2.3244 7.99124 -4.14569 -0.0849653 17.9575 -16.238 1.30913 -22.8725 13.691 -4.81655 -0.0 0.0 0.0 -0.0 0.0 0.0 3.39984e-13 -4.28866e-14 2.31435e-13 51.9737 -26.9237 -3.66038 -16.0155 -8.70151 29.7051 -0.356903 -16.749 -2.42406 1.62814e-09 -6.97868e-10 -3.82757e-10 2.82856e-09 -1.20784e-09 -6.50177e-10 1.62815e-09 -6.97869e-10 -3.82773e-10 7.73091 5.47488 0.417314 1.62814e-09 -6.97866e-10 -3.82751e-10 2.90554 0.965183 0.102902 1.62815e-09 -6.97868e-10 -3.82761e-10 10.2786 0.731801 0.0259123 1.62814e-09 -6.97865e-10 -3.82757e-10 2.22167 -0.733487 -0.20892 3.39783e-13 -4.29887e-14 2.30938e-13 -65.3977 63.1545 -19.2174 18.9315 -11.7244 -36.145 0.172274 -11.7464 1.67461 -4.01333e-09 -3.37503e-09 -5.71049e-10 -6.93782e-09 -5.8739e-09 -1.02262e-09 -4.01332e-09 -3.37503e-09 -5.7104e-10 -7.73091 5.47488 -0.417314 -4.01333e-09 -3.37504e-09 -5.7104e-10 -2.90554 0.965183 -0.102902 -4.01333e-09 -3.37504e-09 -5.71038e-10 -10.2786 0.731801 -0.0259123 -4.01333e-09 -3.37503e-09 -5.71034e-10 -2.22167 -0.733487 0.20892 -2.03217e-16 0.0 -3.88251e-19 -22.6263 -15.6247 -2.57249 -0.15644 29.5561 0.56825 -6.65836 -6.91085 -28.4972 2.03217e-16 0.0 3.88251e-19 -11.1063 -10.8262 8.15049 0.0391528 15.6813 -0.219406 0.480606 -5.25301 1.52844
15.5325 83.1831 -154.729 11.291 8.3273 7.5677 24.8357 4.22302 -2.36228 8.10503 -4.18205 -0.0825285 18.0309 -16.245 1.32483 -23.2049 13.6683 -4.79994 -0.0 0.0 0.0 -0.0 0.0 0.0 2.98376e-13 1.86524e-13 2.18278e-13 51.8084 -27.2914 -4.1373 -16.0659 -8.7485 29.8122 -0.366721 -16.9702 -2.45803 1.07651e-10 -3.07456e-10 -2.63344e-10 1.99452e-10 -5.35471e-10 -4.58832e-10 1.07651e-10 -3.07451e-10 -2.63353e-10 7.73091 5.47488 0.417314 1.07645e-10 -3.07451e-10 -2.63336e-10 2.90554 0.965183 0.102902 1.07656e-10 -3.07449e-10 -2.63342e-10 10.2786 0.731801 0.0259123 1.07652e-10 -3.07448e-10 -2.63336e-10 2.22167 -0.733487 -0.20892 2.98219e-13 1.86396e-13 2.1788e-13 -65.3706 62.8709 -19.3182 19.1288 -11.954 -36.6051 0.18298 -12.1008 1.72665 -4.42539e-09 -4.48922e-09 -7.81122e-10 -7.64143e-09 -7.80015e-09 -1.39149e-09 -4.42539e-09 -4.48921e-09 -7.81115e-10 -7.73091 5.47488 -0.417314 -4.42539e-09 -4.48922e-09 -7.81119e-10 -2.90554 0.965183 -0.102902 -4.4254e-09 -4.48922e-09 -7.81115e-10 -10.2786 0.731801 -0.0259123 -4.4254e-09 -4.48922e-09 -7.8111e-10 -2.22167 -0.733487 0.20892 -2.03217e-16 0.0 -3.88251e-19 -22.8133 -15.6408 -2.52338 -0.157437 29.6751 0.573469 -6.72371 -7.01034 -28.5369 2.03217e-16 0.0 3.88251e-19 -11.2503 -10.7048 8.26281 0.038528 15.5513 -0.2171 0.44087 -5.23904 1.28622
15.5312 83.178 -154.671 11.4836 8.2825 7.5608 24.9823 4.28979 -2.42524 8.19826 -4.21534 -0.0881382 18.0435 -16.1945 1.33259 -23.4482 13.5087 -4.78392 -0.0 0.0 0.0 -0.0 0.0 0.0 1.91081e-13 3.19706e-13 2.00077e-13 51.7003 -27.5659 -4.57193 -16.0706 -8.75309 29.8219 -0.37456 -17.143 -2.48464 -8.90621e-10 9.35401e-11 6.90689e-11 -1.53263e-09 1.58048e-10 1.0802e-10 -8.90625e-10 9.35505e-11 6.90657e-11 7.73091 5.47488 0.417314 -8.90625e-10 9.35476e-11 6.90753e-11 2.90554 0.965183 0.102902 -8.90618e-10 9.35529e-11 6.90745e-11 10.2786 0.731801 0.0259123 -8.90619e-10 9.35524e-11 6.90848e-11 2.22167 -0.733487 -0.20892 1.90996e-13 3.19586e-13 1.99828e-13 -65.578 62.4501 -19.2202 19.2798 -12.1321 -36.9591 0.191127 -12.3605 1.76489 -3.91067e-09 -4.70468e-09 -8.78892e-10 -6.74589e-09 -8.16643e-09 -1.55824e-09 -3.91068e-09 -4.70468e-09 -8.78886e-10 -7.73091 5.47488 -0.417314 -3.91067e-09 -4.70468e-09 -8.78895e-10 -2.90554 0.965183 -0.102902 -3.91069e-09 -4.70468e-09 -8.78891e-10 -10.2786 0.731801 -0.0259123 -3.91068e-09 -4.70468e-09 -8.78889e-10 -2.22167 -0.733487 0.20892 -2.03217e-16 0.0 -3.88251e-19 -22.9953 -15.6539 -2.48767 -0.158601 29.8057 0.578796 -6.78057 -7.10844 -28.5451 2.03217e-16 0.0 3.88251e-19 -11.3944 -10.5641 8.33765 0.0378919 15.4199 -0.214807 0.411193 -5.20903 1.11022
15.5141 83.1744 -154.602 11.693 8.2468 7.5363 25.0236 4.30152 -2.52021 8.26942 -4.25296 -0.108148 18.0211 -15.9584 1.29485 -23.601 13.1457 -4.83454 -0.0 0.0 0.0 -0.0 0.0 0.0 1.34088e-13 2.08017e-14 2.40154e-13 51.608 -27.7071 -5.08256 -16.0322 -8.71719 29.7408 -0.374796 -17.1472 -2.4853 9.196e-10 -7.82437e-11 4.41971e-10 1.58647e-09 -1.33397e-10 7.74904e-10 9.19596e-10 -7.82338e-11 4.41964e-10 7.73091 5.47488 0.417314 9.19597e-10 -7.8234e-11 4.4197e-10 2.90554 0.965183 0.102902 9.19603e-10 -7.82308e-11 4.41975e-10 10.2786 0.731801 0.0259123 9.196e-10 -7.82318e-11 4.41986e-10 2.22167 -0.733487 -0.20892 1.34097e-13 2.07442e-14 2.40008e-13 -65.9823 62.0071 -18.9134 19.3663 -12.2348 -37.1637 0.190595 -12.3427 1.76227 -2.50419e-09 -3.27369e-09 -7.74588e-10 -4.32156e-09 -5.68666e-09 -1.3667e-09 -2.5042e-09 -3.2737e-09 -7.74578e-10 -7.73091 5.47488 -0.417314 -2.50419e-09 -3.2737e-09 -7.7459e-10 -2.90554 0.965183 -0.102902 -2.5042e-09 -3.2737e-09 -7.74588e-10 -10.2786 0.731801 -0.0259123 -2.50419e-09 -3.2737e-09 -7.74592e-10 -2.22167 -0.733487 0.20892 -2.03217e-16 0.0 -3.88251e-19 -23.1916 -15.6657 -2.47747 -0.160125 29.965 0.584747 -6.83597 -7.20514 -28.5469 2.03217e-16 0.0 3.88251e-19 -11.5454 -10.3902 8.43763 0.03715 15.2648 -0.212006 0.380353 -5.17383 0.918973
